<svg width="63" height="13" viewBox="0 0 63 13" fill="none" xmlns="http://www.w3.org/2000/svg">
<path d="M6.53419 8.53944C7.65865 8.53944 8.57021 7.62788 8.57021 6.50342C8.57021 5.37895 7.65865 4.4674 6.53419 4.4674C5.40973 4.4674 4.49817 5.37895 4.49817 6.50342C4.49817 7.62788 5.40973 8.53944 6.53419 8.53944Z" fill="#353535"/>
<path d="M-1.02753e-09 6.49601L0 3.2557C1.77739 3.2557 3.24031 4.71862 3.24031 6.49601C3.24031 8.2734 1.77739 9.73633 -2.05506e-09 9.73633L-1.02753e-09 6.49601Z" fill="#353535"/>
<path d="M13.0308 6.49601L13.0308 3.2557C11.2534 3.2557 9.79047 4.71862 9.79047 6.49601C9.79047 8.2734 11.2534 9.73633 13.0308 9.73633L13.0308 6.49601Z" fill="#353535"/>
<path d="M6.50399 1.02753e-09L3.26367 0C3.26367 1.77739 4.7266 3.24032 6.50399 3.24032C8.28137 3.24032 9.7443 1.77739 9.7443 2.05506e-09L6.50399 1.02753e-09Z" fill="#353535"/>
<path d="M6.50399 13L3.26367 13C3.26367 11.2226 4.7266 9.75969 6.50399 9.75969C8.28137 9.75969 9.7443 11.2226 9.7443 13L6.50399 13Z" fill="#353535"/>
<path d="M22.3689 8.69382C22.3689 8.46652 22.3205 8.26941 22.2231 8.1025C22.1257 7.93558 21.9388 7.77664 21.6631 7.62625C21.3874 7.47586 20.9806 7.31464 20.4428 7.14317C19.9882 6.99505 19.5564 6.82699 19.1457 6.639C18.7355 6.45158 18.3726 6.23225 18.0576 5.9816C17.742 5.73151 17.4942 5.43927 17.3136 5.10544C17.133 4.77161 17.0424 4.38195 17.0424 3.93703C17.0424 3.36678 17.2048 2.86946 17.5289 2.44562C17.8537 2.02121 18.2997 1.6908 18.8677 1.45438C19.4357 1.21797 20.0857 1.09948 20.8183 1.09948C21.5691 1.09948 22.2254 1.23164 22.7865 1.49597C23.3476 1.7603 23.7823 2.12774 24.0905 2.59829C24.3987 3.06884 24.5531 3.61232 24.5531 4.22927L22.3763 4.22927C22.3763 3.95583 22.3182 3.71372 22.2026 3.50237C22.0864 3.29159 21.9115 3.12695 21.6773 3.00846C21.4432 2.89054 21.1453 2.83129 20.7835 2.83129C20.436 2.83129 20.146 2.88256 19.9142 2.98453C19.6823 3.08651 19.5097 3.22095 19.3963 3.38786C19.2824 3.55478 19.226 3.74277 19.226 3.95127C19.226 4.16946 19.3024 4.35916 19.4556 4.52152C19.6088 4.68388 19.831 4.83313 20.1233 4.96985C20.4155 5.10657 20.7698 5.23988 21.1874 5.36977C21.9246 5.59251 22.5432 5.85399 23.044 6.15535C23.5447 6.45671 23.9213 6.81275 24.1742 7.22292C24.4266 7.63309 24.5531 8.11902 24.5531 8.67958C24.5531 9.27318 24.4009 9.78076 24.0973 10.2023C23.7937 10.6245 23.3658 10.9463 22.8144 11.1691C22.2624 11.3918 21.6135 11.5029 20.8672 11.5029C20.3574 11.5029 19.8578 11.4368 19.3684 11.3046C18.8791 11.1725 18.4364 10.9685 18.0399 10.6928C17.6435 10.4171 17.3273 10.0679 17.0909 9.64632C16.8545 9.22476 16.736 8.72402 16.736 8.14409L18.9264 8.14409C18.9264 8.44545 18.9714 8.69952 19.0619 8.90574C19.1525 9.11197 19.2818 9.28002 19.4516 9.4099C19.6208 9.53979 19.8247 9.63379 20.0634 9.69133C20.3021 9.74943 20.5699 9.77848 20.8667 9.77848C21.2142 9.77848 21.4985 9.7312 21.7183 9.63606C21.9382 9.54093 22.1017 9.41104 22.2088 9.24641C22.3159 9.08234 22.3689 8.89834 22.3689 8.69382Z" fill="#353535"/>
<path d="M27.9045 11.3645L25.8041 11.3645L25.8041 0.676207L27.9045 0.676207L27.9045 11.3645ZM29.3999 7.616L27.6196 9.39623L26.8477 7.88716L28.2594 6.06534L30.1228 3.84018L32.647 3.84018L29.3999 7.616ZM28.3078 7.92932L29.7679 6.68457L32.8692 11.3645L30.4561 11.3645L28.3078 7.92932Z" fill="#353535"/>
<path d="M33.4401 1.89987C33.4401 1.58484 33.5466 1.32621 33.7602 1.12454C33.9733 0.922875 34.2587 0.822042 34.6159 0.822042C34.9731 0.822042 35.2568 0.922875 35.4675 1.12454C35.6783 1.32621 35.7837 1.58484 35.7837 1.89987C35.7837 2.21034 35.6783 2.46783 35.4675 2.67178C35.2568 2.87572 34.9725 2.9777 34.6159 2.9777C34.2587 2.9777 33.9738 2.87572 33.7602 2.67178C33.5466 2.46783 33.4401 2.21034 33.4401 1.89987ZM35.6721 11.3645L33.5648 11.3645L33.5648 3.84018L35.6721 3.84018L35.6721 11.3645Z" fill="#353535"/>
<path d="M38.4401 11.3645L37.0353 11.3645L37.0353 10.106L41.7921 3.84018L43.2106 3.84018L43.2106 5.06385L38.4401 11.3645ZM42.4802 5.52984L37.1464 5.52984L37.1464 3.84018L42.4802 3.84018L42.4802 5.52984ZM43.3148 11.3645L37.5913 11.3645L37.5913 9.6748L43.3148 9.6748L43.3148 11.3645Z" fill="#353535"/>
<path d="M48.864 7.9709L47.793 7.9709C47.2831 7.9709 46.9146 8.08085 46.6873 8.30131C46.46 8.52178 46.3466 8.78725 46.3466 9.09772C46.3466 9.33414 46.4298 9.52897 46.5967 9.68164C46.7636 9.83431 46.9886 9.91122 47.2712 9.91122C47.5634 9.91122 47.8146 9.85425 48.026 9.74089C48.2368 9.62752 48.3991 9.4908 48.5125 9.33072C48.6259 9.17064 48.6806 9.02366 48.676 8.88922L49.2183 9.79329C49.1443 9.97901 49.0457 10.171 48.9227 10.3704C48.7996 10.5698 48.6435 10.7555 48.4532 10.927C48.263 11.0984 48.0323 11.2374 47.7611 11.344C47.4899 11.4505 47.1709 11.504 46.8046 11.504C46.3318 11.504 45.9005 11.4078 45.5109 11.2152C45.1212 11.0227 44.813 10.756 44.5857 10.4154C44.3584 10.0747 44.2451 9.68392 44.2451 9.24356C44.2451 8.4557 44.5373 7.84443 45.1212 7.41091C45.7051 6.97739 46.5762 6.76091 47.7303 6.76091L48.8497 6.76091L48.864 7.9709ZM48.5786 6.35075C48.5786 6.01236 48.4954 5.74347 48.3285 5.54409C48.1616 5.3447 47.895 5.24501 47.5287 5.24501C47.3202 5.24501 47.139 5.27975 46.9863 5.34925C46.8337 5.41875 46.7174 5.51731 46.6388 5.64492C46.5602 5.77252 46.5203 5.92919 46.5203 6.11433L44.4199 6.11433C44.4199 5.66942 44.5521 5.26494 44.8164 4.90092C45.0808 4.5369 45.4539 4.24637 45.9359 4.02818C46.4178 3.81056 46.9858 3.70118 47.6398 3.70118C48.2237 3.70118 48.7455 3.79974 49.2047 3.99685C49.6638 4.19395 50.025 4.48961 50.2893 4.88326C50.5536 5.27748 50.6858 5.77081 50.6858 6.36442L50.6858 9.50789C50.6858 9.9528 50.7126 10.3054 50.7656 10.5646C50.8185 10.8244 50.8943 11.0511 50.9917 11.246L50.9917 11.3645L48.8777 11.3645C48.7757 11.1514 48.7005 10.8848 48.6515 10.5646C48.6025 10.2445 48.5786 9.92033 48.5786 9.59106L48.5786 6.35075Z" fill="#353535"/>
<path d="M56.4925 7.9709L55.4215 7.9709C54.9116 7.9709 54.543 8.08085 54.3157 8.30131C54.0884 8.52178 53.9751 8.78725 53.9751 9.09772C53.9751 9.33414 54.0582 9.52897 54.2252 9.68164C54.3921 9.83431 54.6171 9.91122 54.8996 9.91122C55.1919 9.91122 55.4431 9.85425 55.6545 9.74089C55.8652 9.62752 56.0276 9.4908 56.141 9.33072C56.2543 9.17064 56.309 9.02366 56.3045 8.88922L56.8468 9.79329C56.7727 9.97901 56.6742 10.171 56.5511 10.3704C56.4281 10.5698 56.272 10.7555 56.0817 10.927C55.8915 11.0984 55.6607 11.2374 55.3896 11.344C55.1184 11.4505 54.7994 11.504 54.4331 11.504C53.9603 11.504 53.529 11.4078 53.1394 11.2152C52.7497 11.0227 52.4415 10.756 52.2142 10.4154C51.9869 10.0747 51.8735 9.68392 51.8735 9.24356C51.8735 8.4557 52.1658 7.84443 52.7497 7.41091C53.3336 6.97739 54.2029 6.76091 55.3577 6.76091L56.4771 6.76091L56.4925 7.9709ZM56.2076 6.35075C56.2076 6.01236 56.1245 5.74347 55.9575 5.54409C55.7906 5.3447 55.524 5.24501 55.1577 5.24501C54.9492 5.24501 54.7681 5.27975 54.6154 5.34925C54.4627 5.41875 54.3465 5.51731 54.2679 5.64492C54.1893 5.77252 54.1494 5.92919 54.1494 6.11433L52.049 6.11433C52.049 5.66942 52.1812 5.26494 52.4455 4.90092C52.7098 4.5369 53.083 4.24637 53.5649 4.02818C54.0468 3.81056 54.6148 3.70118 55.2688 3.70118C55.8527 3.70118 56.3745 3.79974 56.8337 3.99685C57.2929 4.19395 57.654 4.48961 57.9184 4.88326C58.1827 5.27748 58.3149 5.77081 58.3149 6.36442L58.3149 9.50789C58.3149 9.9528 58.3416 10.3054 58.3946 10.5646C58.4476 10.8244 58.5234 11.0511 58.6208 11.246L58.6208 11.3645L56.5067 11.3645C56.4047 11.1514 56.3295 10.8848 56.2805 10.5646C56.2315 10.2445 56.2076 9.92033 56.2076 9.59106L56.2076 6.35075Z" fill="#353535"/>
<path d="M59.9208 10.3282C59.9208 10.0132 60.0284 9.74886 60.2444 9.53523C60.4603 9.32218 60.744 9.21508 61.096 9.21508C61.4578 9.21508 61.7449 9.32161 61.9585 9.53523C62.1716 9.74829 62.2787 10.0126 62.2787 10.3282C62.2787 10.6438 62.1721 10.9076 61.9585 11.1212C61.7454 11.3343 61.4578 11.4414 61.096 11.4414C60.7434 11.4414 60.4597 11.3348 60.2444 11.1212C60.0284 10.9076 59.9208 10.6438 59.9208 10.3282Z" fill="#353535"/>
</svg>
