<svg width="144" height="30" viewBox="0 0 144 30" fill="none" xmlns="http://www.w3.org/2000/svg">
<path d="M15.0789 19.7064C17.6738 19.7064 19.7774 17.6028 19.7774 15.0079C19.7774 12.413 17.6738 10.3094 15.0789 10.3094C12.484 10.3094 10.3804 12.413 10.3804 15.0079C10.3804 17.6028 12.484 19.7064 15.0789 19.7064Z" fill="#5062FF"/>
<path d="M-2.37122e-09 14.9908L0 7.51314C4.10167 7.51314 7.47765 10.8891 7.47765 14.9908C7.47765 19.0925 4.10167 22.4684 -4.74245e-09 22.4684L-2.37122e-09 14.9908Z" fill="#5062FF"/>
<path d="M30.071 14.9908L30.071 7.51315C25.9694 7.51315 22.5934 10.8891 22.5934 14.9908C22.5934 19.0925 25.9694 22.4684 30.071 22.4684L30.071 14.9908Z" fill="#5062FF"/>
<path d="M15.0093 2.37122e-09L7.53162 0C7.53162 4.10167 10.9076 7.47765 15.0093 7.47765C19.1109 7.47765 22.4869 4.10167 22.4869 4.74245e-09L15.0093 2.37122e-09Z" fill="#5062FF"/>
<path d="M15.0092 30L7.53156 30C7.53156 25.8983 10.9075 22.5223 15.0092 22.5223C19.1109 22.5223 22.4869 25.8983 22.4869 30L15.0092 30Z" fill="#5062FF"/>
<path d="M51.6202 20.0627C51.6202 19.5381 51.5085 19.0833 51.2837 18.6981C51.0589 18.3129 50.6277 17.9461 49.9914 17.599C49.3551 17.252 48.4164 16.8799 47.1754 16.4842C46.1263 16.1424 45.1299 15.7546 44.182 15.3208C43.2355 14.8883 42.398 14.3821 41.671 13.8037C40.9427 13.2266 40.3709 12.5521 39.9541 11.7818C39.5374 11.0114 39.3284 10.1122 39.3284 9.08545C39.3284 7.7695 39.703 6.62182 40.4511 5.64373C41.2004 4.66433 42.2298 3.90184 43.5405 3.35626C44.8512 2.81069 46.3512 2.53725 48.0418 2.53725C49.7745 2.53725 51.2889 2.84225 52.5838 3.45224C53.8788 4.06223 54.8818 4.91016 55.593 5.99605C56.3043 7.08194 56.6605 8.33611 56.6605 9.75986L51.6373 9.75986C51.6373 9.12883 51.5032 8.57011 51.2363 8.08238C50.9682 7.59597 50.5646 7.21604 50.0242 6.94259C49.4839 6.67046 48.7964 6.53374 47.9616 6.53374C47.1597 6.53374 46.4905 6.65206 45.9554 6.88738C45.4204 7.1227 45.0221 7.43295 44.7604 7.81814C44.4975 8.20333 44.3674 8.63716 44.3674 9.11832C44.3674 9.62182 44.5435 10.0596 44.8972 10.4343C45.2508 10.8089 45.7635 11.1534 46.4379 11.4689C47.1123 11.7844 47.93 12.092 48.8937 12.3918C50.5948 12.9058 52.0225 13.5092 53.1781 14.2046C54.3336 14.9001 55.2026 15.7217 55.7863 16.6683C56.3687 17.6148 56.6605 18.7362 56.6605 20.0298C56.6605 21.3996 56.3095 22.571 55.6088 23.5438C54.9081 24.518 53.9208 25.2607 52.6483 25.7748C51.3744 26.2888 49.877 26.5451 48.1548 26.5451C46.9782 26.5451 45.8253 26.3926 44.696 26.0876C43.5668 25.7826 42.5453 25.312 41.6303 24.6757C40.7153 24.0394 39.9857 23.2336 39.4401 22.2607C38.8945 21.2879 38.6211 20.1323 38.6211 18.794L43.6759 18.794C43.6759 19.4895 43.7797 20.0758 43.9888 20.5517C44.1978 21.0276 44.4962 21.4154 44.888 21.7152C45.2784 22.0149 45.7491 22.2318 46.2999 22.3646C46.8507 22.4987 47.4686 22.5657 48.1535 22.5657C48.9554 22.5657 49.6115 22.4566 50.1189 22.2371C50.6264 22.0175 51.0036 21.7178 51.2508 21.3379C51.498 20.9592 51.6202 20.5346 51.6202 20.0627Z" fill="#5062FF"/>
<path d="M64.3946 26.2257L59.5475 26.2257L59.5475 1.56048L64.3946 1.56048L64.3946 26.2257ZM67.8455 17.5754L63.7372 21.6836L61.9559 18.2011L65.2136 13.9969L69.5138 8.86196L75.3389 8.86196L67.8455 17.5754ZM65.3253 18.2984L68.6947 15.4259L75.8516 26.2257L70.2828 26.2257L65.3253 18.2984Z" fill="#5062FF"/>
<path d="M77.1689 4.38432C77.1689 3.65732 77.4148 3.06048 77.9078 2.5951C78.3994 2.12972 79.0581 1.89703 79.8824 1.89703C80.7066 1.89703 81.3613 2.12972 81.8477 2.5951C82.3341 3.06048 82.5774 3.65732 82.5774 4.38432C82.5774 5.10079 82.3341 5.69501 81.8477 6.16565C81.3613 6.63629 80.7053 6.87161 79.8824 6.87161C79.0581 6.87161 78.4008 6.63629 77.9078 6.16565C77.4148 5.69501 77.1689 5.10079 77.1689 4.38432ZM82.3197 26.2257L77.4569 26.2257L77.4569 8.86197L82.3197 8.86197L82.3197 26.2257Z" fill="#5062FF"/>
<path d="M88.7075 26.2257L85.4656 26.2257L85.4656 23.3216L96.4428 8.86196L99.7162 8.86196L99.7162 11.6858L88.7075 26.2257ZM98.0309 12.7612L85.7219 12.7612L85.7219 8.86196L98.0309 8.86196L98.0309 12.7612ZM99.9568 26.2257L86.7487 26.2257L86.7487 22.3265L99.9568 22.3265L99.9568 26.2257Z" fill="#5062FF"/>
<path d="M112.763 18.3944L110.291 18.3944C109.115 18.3944 108.264 18.6481 107.739 19.1569C107.215 19.6656 106.953 20.2783 106.953 20.9947C106.953 21.5403 107.145 21.9899 107.53 22.3422C107.916 22.6946 108.435 22.872 109.087 22.872C109.761 22.872 110.341 22.7406 110.829 22.479C111.315 22.2174 111.69 21.9018 111.952 21.5324C112.213 21.163 112.339 20.8238 112.329 20.5136L113.58 22.5999C113.41 23.0285 113.182 23.4715 112.898 23.9316C112.614 24.3918 112.254 24.8203 111.815 25.216C111.376 25.6117 110.843 25.9325 110.218 26.1784C109.592 26.4242 108.856 26.5478 108.01 26.5478C106.919 26.5478 105.924 26.3256 105.025 25.8812C104.126 25.4369 103.414 24.8217 102.89 24.0355C102.365 23.2493 102.104 22.3475 102.104 21.3313C102.104 19.5131 102.778 18.1025 104.126 17.1021C105.473 16.1017 107.483 15.6021 110.147 15.6021L112.73 15.6021L112.763 18.3944ZM112.104 14.6556C112.104 13.8747 111.912 13.2542 111.527 12.794C111.142 12.3339 110.527 12.1039 109.681 12.1039C109.2 12.1039 108.782 12.184 108.43 12.3444C108.077 12.5048 107.809 12.7323 107.628 13.0267C107.446 13.3212 107.354 13.6827 107.354 14.11L102.507 14.11C102.507 13.0833 102.812 12.1499 103.422 11.3098C104.032 10.4698 104.893 9.7993 106.005 9.2958C107.118 8.79361 108.428 8.54119 109.938 8.54119C111.285 8.54119 112.489 8.76862 113.549 9.22349C114.608 9.67835 115.442 10.3606 116.052 11.2691C116.662 12.1788 116.967 13.3173 116.967 14.6871L116.967 21.9413C116.967 22.968 117.029 23.7818 117.151 24.3799C117.273 24.9794 117.448 25.5026 117.673 25.9522L117.673 26.2257L112.794 26.2257C112.559 25.734 112.385 25.1188 112.272 24.3799C112.159 23.6411 112.104 22.8931 112.104 22.1332L112.104 14.6556Z" fill="#5062FF"/>
<path d="M130.367 18.3944L127.895 18.3944C126.719 18.3944 125.868 18.6481 125.344 19.1569C124.819 19.6656 124.558 20.2783 124.558 20.9947C124.558 21.5403 124.749 21.9899 125.135 22.3422C125.52 22.6946 126.039 22.872 126.691 22.872C127.366 22.872 127.945 22.7406 128.433 22.479C128.919 22.2174 129.294 21.9018 129.556 21.5324C129.817 21.163 129.944 20.8238 129.933 20.5136L131.185 22.5999C131.014 23.0285 130.786 23.4715 130.502 23.9316C130.218 24.3918 129.858 24.8203 129.419 25.216C128.98 25.6117 128.448 25.9325 127.822 26.1784C127.196 26.4242 126.46 26.5478 125.614 26.5478C124.523 26.5478 123.528 26.3256 122.629 25.8812C121.73 25.4369 121.019 24.8217 120.494 24.0355C119.969 23.2493 119.708 22.3475 119.708 21.3313C119.708 19.5131 120.382 18.1025 121.73 17.1021C123.077 16.1017 125.083 15.6021 127.748 15.6021L130.331 15.6021L130.367 18.3944ZM129.71 14.6556C129.71 13.8747 129.518 13.2542 129.132 12.794C128.747 12.3339 128.132 12.1039 127.287 12.1039C126.806 12.1039 126.387 12.184 126.035 12.3444C125.683 12.5048 125.415 12.7323 125.233 13.0267C125.052 13.3212 124.96 13.6827 124.96 14.11L120.113 14.11C120.113 13.0833 120.418 12.1499 121.028 11.3098C121.638 10.4698 122.499 9.7993 123.611 9.2958C124.723 8.79361 126.034 8.54119 127.543 8.54119C128.891 8.54119 130.095 8.76862 131.154 9.22349C132.214 9.67835 133.047 10.3606 133.657 11.2691C134.267 12.1788 134.572 13.3173 134.572 14.6871L134.572 21.9413C134.572 22.968 134.634 23.7818 134.756 24.3799C134.879 24.9794 135.054 25.5026 135.278 25.9522L135.278 26.2257L130.4 26.2257C130.164 25.734 129.991 25.1188 129.878 24.3799C129.765 23.6411 129.71 22.8931 129.71 22.1332L129.71 14.6556Z" fill="#5062FF"/>
<path d="M138.278 23.8344C138.278 23.1074 138.527 22.4974 139.025 22.0044C139.523 21.5127 140.178 21.2656 140.99 21.2656C141.825 21.2656 142.488 21.5114 142.981 22.0044C143.473 22.4961 143.72 23.1061 143.72 23.8344C143.72 24.5627 143.474 25.1713 142.981 25.6643C142.489 26.156 141.825 26.4032 140.99 26.4032C140.177 26.4032 139.522 26.1573 139.025 25.6643C138.527 25.1713 138.278 24.5627 138.278 23.8344Z" fill="#5062FF"/>
</svg>
